<svg width="67" height="24" viewBox="0 0 67 24" fill="none" xmlns="http://www.w3.org/2000/svg">
<path d="M0.0805 23.5L8.3365 0.459999H12.5605L4.9765 23.5H0.0805ZM16.9765 23.5L9.4245 0.459999H13.8405L22.0965 23.5H16.9765ZM4.4325 14.572H17.3605V18.412H4.4325V14.572ZM23.92 23.5V18.22H29.2V23.5H23.92ZM34.8818 23.5V4.236H27.3618V0.459999H47.3298V4.236H39.8098V23.5H34.8818ZM57.8845 23.788C54.8978 23.788 52.5085 23.1267 50.7165 21.804C48.9245 20.46 47.8792 18.572 47.5805 16.14H52.3165C52.4658 17.3773 53.0632 18.3587 54.1085 19.084C55.1538 19.788 56.4872 20.14 58.1085 20.14C59.4312 20.14 60.4445 19.9053 61.1485 19.436C61.8738 18.9667 62.2365 18.3373 62.2365 17.548C62.2365 16.8013 62.0232 16.204 61.5965 15.756C61.1698 15.2867 60.4338 14.9133 59.3885 14.636L55.1005 13.452C52.9032 12.8333 51.2925 11.9907 50.2685 10.924C49.2658 9.836 48.7645 8.48133 48.7645 6.86C48.7645 5.47333 49.1165 4.27867 49.8205 3.276C50.5458 2.252 51.5592 1.47333 52.8605 0.939999C54.1618 0.385333 55.6872 0.108 57.4365 0.108C60.1245 0.108 62.2685 0.748 63.8685 2.028C65.4685 3.28667 66.3752 4.96133 66.5885 7.052H61.8525C61.6392 5.92133 61.1165 5.08933 60.2845 4.556C59.4738 4.02267 58.4285 3.756 57.1485 3.756C56.0392 3.756 55.1538 3.96933 54.4925 4.396C53.8312 4.82267 53.5005 5.39867 53.5005 6.124C53.5005 6.67867 53.6818 7.19067 54.0445 7.66C54.4072 8.108 55.1645 8.492 56.3165 8.812L60.6045 9.996C62.8658 10.6147 64.4872 11.468 65.4685 12.556C66.4712 13.6227 66.9725 14.9773 66.9725 16.62C66.9725 18.924 66.1725 20.6947 64.5725 21.932C62.9725 23.1693 60.7432 23.788 57.8845 23.788Z" fill="black"/>
</svg>
