<svg width="267" height="221" viewBox="0 0 267 221" fill="none" xmlns="http://www.w3.org/2000/svg">
<circle cx="161.76" cy="105.939" r="105.101" fill="#34D637" fill-opacity="0.5"/>
<path d="M203.471 79.0536C201.061 76.6425 198.2 74.7298 195.051 73.4249C191.901 72.1199 188.525 71.4482 185.116 71.4482C181.707 71.4482 178.332 72.1199 175.182 73.4249C172.033 74.7298 169.171 76.6425 166.761 79.0536L161.76 84.0552L156.758 79.0536C151.89 74.1856 145.288 71.4508 138.403 71.4508C131.519 71.4508 124.916 74.1856 120.048 79.0536C115.18 83.9217 112.446 90.5241 112.446 97.4086C112.446 104.293 115.18 110.895 120.048 115.763L161.76 157.475L203.471 115.763C205.882 113.353 207.795 110.492 209.1 107.343C210.405 104.193 211.077 100.818 211.077 97.4086C211.077 93.9995 210.405 90.6239 209.1 87.4745C207.795 84.3251 205.882 81.4636 203.471 79.0536Z" stroke="#1E1E1E" stroke-width="4" stroke-linecap="round" stroke-linejoin="round"/>
<path d="M173.449 127.074V124.152C173.449 122.601 172.834 121.115 171.738 120.019C170.641 118.923 169.155 118.307 167.605 118.307H155.915C154.365 118.307 152.878 118.923 151.782 120.019C150.686 121.115 150.07 122.601 150.07 124.152V127.074M167.605 106.617C167.605 109.845 164.988 112.462 161.76 112.462C158.532 112.462 155.915 109.845 155.915 106.617C155.915 103.389 158.532 100.772 161.76 100.772C164.988 100.772 167.605 103.389 167.605 106.617Z" stroke="#1E1E1E" stroke-width="4" stroke-linecap="round" stroke-linejoin="round"/>
<path d="M258.634 113.877C258.634 172.077 212.762 219.185 156.264 219.185C99.766 219.185 53.8943 172.077 53.8943 113.877C53.8943 55.6768 99.766 8.56836 156.264 8.56836C212.762 8.56836 258.634 55.6768 258.634 113.877Z" stroke="black" stroke-width="3"/>
<path d="M8.82245 47.6293C8.82245 47.6986 8.83111 47.7766 8.84845 47.8633C8.86578 47.9326 8.88311 48.0019 8.90045 48.0713C9.03911 48.0886 9.24711 48.0973 9.52445 48.0973C10.7378 48.0973 11.9858 47.8373 13.2684 47.3173C13.6324 47.1786 13.9358 47.1093 14.1784 47.1093C14.6638 47.1093 15.0624 47.3346 15.3744 47.7853C15.5304 48.0279 15.6084 48.2359 15.6084 48.4093C15.6084 48.6173 15.4958 48.8339 15.2704 49.0593C14.5771 49.7006 13.8404 50.0646 13.0604 50.1513C12.3671 50.2379 11.3271 50.3853 9.94045 50.5933L8.12045 50.8533C7.84311 51.4599 7.70445 52.0493 7.70445 52.6213C7.70445 53.4533 7.99045 54.1466 8.56245 54.7013C9.15178 55.2386 9.94911 55.5246 10.9544 55.5593C11.9771 55.5766 13.2858 55.5073 14.8804 55.3513L15.2704 55.3253C15.7038 55.3253 16.0591 55.4293 16.3364 55.6373C16.6311 55.8279 16.9084 56.1746 17.1684 56.6773C16.9778 57.0933 16.7091 57.3706 16.3624 57.5093C16.0158 57.6653 15.5651 57.7779 15.0104 57.8473C14.4384 57.9166 13.7884 57.9513 13.0604 57.9513C11.4831 57.9513 10.0618 57.6999 8.79645 57.1973C6.56045 56.3306 5.13045 54.8313 4.50645 52.6993C4.41978 52.4046 4.37645 52.0926 4.37645 51.7633C4.37645 51.4166 4.37645 51.2086 4.37645 51.1393C4.37645 50.5499 4.09045 50.1166 3.51845 49.8393C3.05045 49.5793 2.68645 49.3279 2.42645 49.0853C2.18378 48.8426 2.02778 48.4786 1.95845 47.9933L4.89645 47.8113L6.22245 43.9893C6.25711 43.8679 6.29178 43.7206 6.32645 43.5473C6.37845 43.3566 6.43045 43.2093 6.48245 43.1053C6.63845 42.7586 6.71645 42.4726 6.71645 42.2473C6.71645 41.9006 6.55178 41.5973 6.22245 41.3373C6.10111 41.2506 5.99711 41.0946 5.91045 40.8693C5.84111 40.6266 5.77178 40.4359 5.70245 40.2973L6.27445 40.1153C6.55178 40.0459 6.75111 39.9853 6.87245 39.9333C6.94178 39.8986 7.08911 39.8379 7.31445 39.7513C7.53978 39.6473 7.66978 39.5346 7.70445 39.4133C7.82578 39.1186 7.97311 38.9193 8.14645 38.8153C8.33711 38.7113 8.56245 38.6593 8.82245 38.6593C8.99578 38.6593 9.25578 38.6766 9.60245 38.7113C9.70645 38.7113 9.81045 38.7373 9.91445 38.7893C10.0358 38.8239 10.1311 38.8759 10.2004 38.9453C10.5991 39.3613 11.0411 39.6386 11.5264 39.7773C12.0118 39.9159 12.5838 39.9853 13.2424 39.9853H14.3604H16.5444C18.0178 39.9853 19.1184 40.0026 19.8464 40.0373C20.2278 40.0546 20.7131 40.2193 21.3024 40.5313C21.4064 40.5833 21.4844 40.6873 21.5364 40.8433C21.6058 40.9819 21.6404 41.1206 21.6404 41.2593C21.6404 41.3286 21.5798 41.4153 21.4584 41.5193C21.3371 41.6059 21.2244 41.6666 21.1204 41.7013C19.9418 42.0133 19.0491 42.1953 18.4424 42.2473C17.5064 42.3339 16.1024 42.4466 14.2304 42.5853C13.7971 42.6026 13.1038 42.6459 12.1504 42.7153C12.0811 42.7153 11.9598 42.6979 11.7864 42.6633C11.6131 42.6113 11.4831 42.5853 11.3964 42.5853C10.7551 42.5853 10.3478 42.8539 10.1744 43.3913C9.70645 44.7779 9.26445 46.1559 8.84845 47.5253L8.82245 47.6293ZM35.3223 50.5153C35.2877 49.8566 35.0103 49.3713 34.4903 49.0593C34.0743 49.1633 33.7363 49.2933 33.4763 49.4493C33.2163 49.6053 33.0257 49.7613 32.9043 49.9173C32.783 50.0559 32.5663 50.3333 32.2543 50.7493C32.1503 50.8879 32.0377 51.0786 31.9163 51.3213C31.8123 51.5639 31.7517 51.7113 31.7343 51.7633C31.6823 51.8846 31.6563 52.0146 31.6563 52.1533C31.6563 52.2573 31.6737 52.4219 31.7083 52.6473C31.7603 52.8553 31.7777 53.0199 31.7603 53.1413C31.743 53.4013 31.7517 53.8086 31.7863 54.3633L31.8123 55.1693C31.8123 55.4119 31.8037 55.5939 31.7863 55.7153C31.7517 55.9926 31.665 56.2353 31.5263 56.4433C31.3877 56.6513 31.197 56.7553 30.9543 56.7553C30.8677 56.7553 30.755 56.7293 30.6163 56.6773C30.495 56.6426 30.2957 56.5819 30.0183 56.4953C29.741 56.4086 29.5243 56.2786 29.3683 56.1053C29.2123 55.9146 29.1343 55.6459 29.1343 55.2993C29.1343 54.3979 29.0477 53.0459 28.8743 51.2433C28.8397 51.0526 28.805 50.7319 28.7703 50.2813C28.753 50.0906 28.6663 49.9433 28.5103 49.8393C28.3543 49.7353 28.1637 49.6833 27.9383 49.6833C27.5743 49.6833 27.297 49.7786 27.1063 49.9693C26.309 50.4199 25.7283 50.9313 25.3643 51.5033C25.0003 52.0753 24.8183 52.8119 24.8183 53.7133L24.8443 54.5973C24.8443 55.1693 24.697 55.6979 24.4023 56.1833C24.3157 56.3393 24.1337 56.4779 23.8563 56.5993C23.5963 56.7033 23.371 56.7379 23.1803 56.7033C23.007 56.6859 22.825 56.5733 22.6343 56.3653C22.461 56.1399 22.3743 55.9406 22.3743 55.7673C22.3223 54.3113 22.2963 52.8639 22.2963 51.4253C22.2963 50.1253 22.3137 49.1546 22.3483 48.5133C22.3657 48.1839 22.4783 47.9239 22.6863 47.7333C22.8943 47.5426 23.1457 47.4473 23.4403 47.4473C23.8217 47.4473 24.1597 47.5859 24.4543 47.8633C24.6103 48.1579 24.7403 48.3746 24.8443 48.5133C24.9483 48.6346 25.061 48.6953 25.1823 48.6953C25.2863 48.6953 25.4077 48.6433 25.5463 48.5393C25.685 48.4179 25.8757 48.2273 26.1183 47.9673C26.6903 47.3433 27.2883 47.0313 27.9123 47.0313C28.5883 47.0313 29.403 47.3693 30.3563 48.0453C30.4257 48.0973 30.521 48.1753 30.6423 48.2793C30.7637 48.3659 30.8677 48.4093 30.9543 48.4093C31.0757 48.4093 31.2663 48.2706 31.5263 47.9933C32.497 47.0919 33.7277 46.5979 35.2183 46.5113C35.6863 46.4939 36.1543 46.6759 36.6223 47.0573C37.1077 47.4213 37.411 47.8633 37.5323 48.3833C37.7403 49.2673 37.8877 50.3073 37.9743 51.5033C38.0783 53.3059 38.1217 54.6579 38.1043 55.5593C38.087 55.9753 37.9743 56.3046 37.7663 56.5473C37.5583 56.7726 37.2897 56.8853 36.9603 56.8853C36.7003 56.8853 36.423 56.8073 36.1283 56.6513C36.007 56.5993 35.8943 56.5039 35.7903 56.3653C35.6863 56.2266 35.6343 56.1053 35.6343 56.0013L35.4783 53.2453C35.461 52.9506 35.4437 52.5779 35.4263 52.1273C35.409 51.6593 35.3743 51.1219 35.3223 50.5153ZM40.7305 61.4613C40.7305 56.7639 40.7219 53.2453 40.7045 50.9053C40.7045 50.4546 40.7739 50.1079 40.9125 49.8653C41.0685 49.6053 41.3545 49.3973 41.7705 49.2413C42.4812 48.9813 43.3825 48.6086 44.4745 48.1233L45.8265 47.5253C46.0519 47.4386 46.3639 47.4126 46.7625 47.4473C47.7852 47.5166 48.5219 47.7766 48.9725 48.2273C49.4232 48.6606 49.6485 49.2846 49.6485 50.0993C49.6485 50.5499 49.5619 51.1393 49.3885 51.8673C49.2152 52.5779 48.8079 53.5053 48.1665 54.6493C47.5945 55.6893 46.7885 56.2093 45.7485 56.2093C45.3845 56.2093 45.0205 56.1486 44.6565 56.0273C44.4139 55.9579 44.2579 55.9233 44.1885 55.9233C43.8245 55.9233 43.6685 56.2266 43.7205 56.8333C43.7725 58.1159 43.7985 59.3726 43.7985 60.6033C43.8159 60.8979 43.8245 61.3226 43.8245 61.8773C43.8245 62.2066 43.8159 62.4579 43.7985 62.6313L43.7725 63.3593C43.7725 63.8099 43.6339 64.1739 43.3565 64.4513C43.0792 64.7286 42.7152 64.8673 42.2645 64.8673C41.8659 64.8673 41.5192 64.7199 41.2245 64.4253C40.9299 64.1306 40.7825 63.7839 40.7825 63.3853V61.4613H40.7305ZM43.6165 51.4513C43.5299 51.5206 43.4605 51.6419 43.4085 51.8153C43.3739 51.9713 43.3479 52.1359 43.3305 52.3093C43.3132 52.4653 43.2872 52.6126 43.2525 52.7513C43.2699 52.7686 43.2872 52.7773 43.3045 52.7773C43.3392 52.7773 43.3652 52.7859 43.3825 52.8033C43.3825 52.9073 43.3912 53.0893 43.4085 53.3493C43.4259 53.6093 43.4519 53.8433 43.4865 54.0513C43.5385 54.2939 43.6252 54.4846 43.7465 54.6233C43.8679 54.7446 44.0065 54.8053 44.1625 54.8053C44.3705 54.8053 44.5785 54.7099 44.7865 54.5193C45.9305 53.5486 46.5892 52.1359 46.7625 50.2813C46.7625 50.1946 46.6845 50.0646 46.5285 49.8913C46.3725 49.7179 46.2859 49.6399 46.2685 49.6573C45.8179 49.9346 45.3499 50.2293 44.8645 50.5413C44.3792 50.8359 43.9632 51.1393 43.6165 51.4513ZM56.6364 45.7573C57.4338 45.7573 58.0838 45.9913 58.5864 46.4593C59.1064 46.9099 59.4618 47.5166 59.6524 48.2793C59.7564 48.6953 59.7911 49.1633 59.7564 49.6833C59.7391 49.9779 59.7218 50.3939 59.7044 50.9313C59.6871 51.3819 59.6264 52.0493 59.5224 52.9333C59.4184 53.7999 59.3578 54.4499 59.3404 54.8833C59.3231 55.1953 59.3144 55.6546 59.3144 56.2613L59.3404 58.3673C59.0111 58.5059 58.7164 58.5753 58.4564 58.5753C58.1964 58.5753 57.9278 58.4886 57.6504 58.3153C57.4598 58.1766 57.3298 58.0899 57.2604 58.0553C57.2084 58.0206 57.1304 57.8733 57.0264 57.6133L56.8184 57.1193L56.6884 56.5213C55.7178 56.7293 55.1458 56.8506 54.9724 56.8853C54.7298 56.9026 54.5391 56.9113 54.4004 56.9113C53.7591 56.9113 53.1351 56.7553 52.5284 56.4433C51.9391 56.1313 51.4624 55.6979 51.0984 55.1433C50.7518 54.5886 50.5698 53.9906 50.5524 53.3493C50.5351 52.7426 50.7518 52.2573 51.2024 51.8933C52.1558 51.1306 53.0831 50.7493 53.9844 50.7493C54.4351 50.7493 54.9118 50.8533 55.4144 51.0613C55.6744 51.1653 56.2291 51.3993 57.0784 51.7633L57.1824 51.0353C57.2864 50.4113 57.3384 49.9086 57.3384 49.5273C57.3384 48.9553 57.2084 48.4179 56.9484 47.9153C56.6884 47.8286 56.4978 47.8026 56.3764 47.8373C55.9258 47.9066 55.4751 48.0019 55.0244 48.1233C54.5738 48.2273 53.9584 48.2793 53.1784 48.2793C52.9704 48.2793 52.7624 48.2013 52.5544 48.0453C52.3464 47.8719 52.2511 47.6813 52.2684 47.4733C52.3204 47.1959 52.4764 46.8839 52.7364 46.5373C52.8924 46.3466 53.1091 46.2339 53.3864 46.1993C53.7158 46.1473 53.9844 46.1126 54.1924 46.0953C55.2671 45.8699 56.0818 45.7573 56.6364 45.7573ZM54.4264 54.7793C54.8424 54.6579 55.1891 54.5193 55.4664 54.3633C55.7438 54.1899 55.9864 53.9386 56.1944 53.6093C55.5704 53.1239 55.0938 52.7859 54.7644 52.5953C54.4351 52.4046 54.1144 52.3093 53.8024 52.3093C53.6811 52.3093 53.5338 52.3353 53.3604 52.3873C53.1871 52.4393 53.0571 52.5173 52.9704 52.6213C52.8144 52.8119 52.7364 53.0806 52.7364 53.4273C52.7364 53.7393 52.7971 54.0079 52.9184 54.2333C53.0571 54.4239 53.2304 54.5713 53.4384 54.6753C53.6464 54.7793 53.8631 54.8313 54.0884 54.8313C54.1578 54.8313 54.2704 54.8139 54.4264 54.7793ZM62.0991 47.6033C61.9778 47.4646 61.8911 47.3173 61.8391 47.1613C61.8044 47.0053 61.7698 46.7886 61.7351 46.5113C61.8911 46.1473 62.1771 45.9653 62.5931 45.9653C62.8011 45.9999 62.9484 46.0173 63.0351 46.0173C63.3818 46.0173 63.5984 45.9133 63.6851 45.7053C63.7718 45.4973 63.8151 45.2546 63.8151 44.9773C63.8151 44.6999 63.8151 44.4833 63.8151 44.3273L63.8931 42.7673C63.9104 42.4206 63.9278 41.9959 63.9451 41.4933C63.9798 40.9733 64.0144 40.3753 64.0491 39.6993C64.0664 39.3353 64.1531 39.0666 64.3091 38.8933C64.4824 38.7199 64.7164 38.6333 65.0111 38.6333C65.2191 38.6333 65.3838 38.6506 65.5051 38.6853C66.2158 38.8413 66.6924 39.0666 66.9351 39.3613C67.1778 39.6559 67.3424 40.0979 67.4291 40.6873C67.4464 40.8086 67.4291 41.0599 67.3771 41.4413L66.9091 45.4973C66.8918 45.6013 66.8658 45.7313 66.8311 45.8873C66.7964 46.0259 66.7791 46.1299 66.7791 46.1993C66.7791 46.3553 66.8658 46.4593 67.0391 46.5113C67.2124 46.5633 67.5331 46.5806 68.0011 46.5633C68.7984 46.3899 69.4051 46.2773 69.8211 46.2253C69.9078 46.2079 70.0464 46.1993 70.2371 46.1993C70.4451 46.1993 70.5838 46.2253 70.6531 46.2773C70.7224 46.3119 70.7744 46.4159 70.8091 46.5893C70.8611 46.7453 70.8871 46.9273 70.8871 47.1353C70.8871 47.3259 70.8611 47.4993 70.8091 47.6553C70.7744 47.8113 70.7224 47.8979 70.6531 47.9153C70.1851 48.0539 69.6304 48.1666 68.9891 48.2533C68.2264 48.3919 67.6631 48.5133 67.2991 48.6173C67.1084 48.6693 66.9178 48.7993 66.7271 49.0073C66.5364 49.2153 66.4324 49.4059 66.4151 49.5793C66.3804 50.4286 66.3544 51.2953 66.3371 52.1793C66.3198 52.8553 66.3458 53.5313 66.4151 54.2073C66.4671 54.7793 66.5798 55.1953 66.7531 55.4553C66.9264 55.6979 67.1864 55.8193 67.5331 55.8193C67.8104 55.8193 68.2091 55.7239 68.7291 55.5333C69.0064 55.4119 69.2491 55.3513 69.4571 55.3513C69.7864 55.3513 70.0204 55.5333 70.1591 55.8973C70.2111 56.0186 70.2371 56.1399 70.2371 56.2613C70.2371 56.4866 70.1504 56.6686 69.9771 56.8073C69.8211 56.9459 69.6044 57.0673 69.3271 57.1713C68.8071 57.3619 68.2784 57.4659 67.7411 57.4833C67.0131 57.4833 66.3284 57.3099 65.6871 56.9633C65.0458 56.5993 64.5344 56.0966 64.1531 55.4553C63.7891 54.8139 63.6331 54.0773 63.6851 53.2453C63.7024 52.9159 63.7111 52.3959 63.7111 51.6853C63.7111 50.5586 63.6678 49.4146 63.5811 48.2533C63.5638 48.1493 63.5031 48.0799 63.3991 48.0453C63.2951 47.9933 63.1218 47.9413 62.8791 47.8893C62.4804 47.8199 62.2204 47.7246 62.0991 47.6033ZM75.9672 50.8533C75.9672 50.9746 75.9846 51.2606 76.0192 51.7113C76.1232 51.6593 76.3052 51.5813 76.5652 51.4773C76.8252 51.3559 77.0506 51.2693 77.2412 51.2173C77.4319 51.1653 77.6139 51.1393 77.7872 51.1393C78.5152 51.1393 79.1999 51.4513 79.8412 52.0753C80.4826 52.6993 80.9332 53.5313 81.1932 54.5713C81.3666 55.2126 81.5399 56.2093 81.7132 57.5613C81.7479 57.8386 81.7652 58.0379 81.7652 58.1593C81.7652 58.7486 81.5226 59.0866 81.0372 59.1733C80.7252 59.2426 80.4132 59.1386 80.1012 58.8613C79.8066 58.5839 79.6159 58.2459 79.5292 57.8473C79.2519 56.5646 78.9659 55.3859 78.6712 54.3113C78.6366 54.1726 78.5672 54.0339 78.4632 53.8953C78.3592 53.7393 78.2639 53.6526 78.1772 53.6353H78.1512C78.0646 53.6353 77.9606 53.6959 77.8392 53.8173C77.7352 53.9213 77.6572 54.0426 77.6052 54.1813C77.3799 54.7359 77.1719 55.3253 76.9812 55.9493L76.7992 56.4953C76.7819 56.5473 76.7299 56.7033 76.6432 56.9633C76.5739 57.2233 76.4699 57.4139 76.3312 57.5353C76.1926 57.6566 76.0106 57.7086 75.7852 57.6913C75.2826 57.6393 74.8579 57.4573 74.5112 57.1453C74.1646 56.8159 73.9739 56.4259 73.9392 55.9753C73.5406 50.6886 73.2112 46.6413 72.9512 43.8333C72.9166 43.3479 72.9772 43.0186 73.1332 42.8453C73.2892 42.6546 73.5839 42.5593 74.0172 42.5593C75.1786 42.5593 75.7852 43.3046 75.8372 44.7953C75.8892 46.0086 75.9152 47.2219 75.9152 48.4353L75.9672 50.8533ZM86.8204 45.1853C86.7857 45.2893 86.6557 45.4019 86.4304 45.5233C86.2224 45.6446 86.0491 45.7573 85.9104 45.8613L85.1824 45.4713C84.4717 45.0899 83.9864 44.7866 83.7264 44.5613C83.5877 44.4573 83.5184 44.3273 83.5184 44.1713C83.5184 44.0673 83.5531 43.9806 83.6224 43.9113C83.7091 43.8246 83.8304 43.7813 83.9864 43.7813C84.6624 43.7813 85.4857 43.9546 86.4564 44.3013C86.5604 44.3186 86.6557 44.4399 86.7424 44.6653C86.8291 44.8733 86.8551 45.0466 86.8204 45.1853ZM84.4804 50.0213C84.5324 49.7959 84.5671 49.6313 84.5844 49.5273C84.6017 49.4233 84.6104 49.3106 84.6104 49.1893C84.6104 48.9466 84.6797 48.7559 84.8184 48.6173C84.9744 48.4786 85.2604 48.4093 85.6764 48.4093C86.1617 48.4093 86.5864 48.5653 86.9504 48.8773C87.3317 49.1719 87.5657 49.5619 87.6524 50.0473C87.7044 50.2899 87.7391 50.5586 87.7564 50.8533C87.7737 51.1479 87.7824 51.3386 87.7824 51.4253L88.1464 55.8713C88.1984 56.3393 88.1291 56.7033 87.9384 56.9633C87.7651 57.2059 87.4271 57.3273 86.9244 57.3273C86.4911 57.3273 86.1184 57.2059 85.8064 56.9633C85.5117 56.7206 85.3297 56.4086 85.2604 56.0273L84.5844 50.5153L84.4804 50.0213ZM93.6186 54.4673C93.6359 54.5193 93.7833 54.5626 94.0606 54.5973C94.3379 54.6319 94.6499 54.6493 94.9966 54.6493C95.7766 54.6493 96.3746 54.5886 96.7906 54.4673C97.1893 54.3633 97.6486 54.2159 98.1686 54.0253C98.9833 53.7653 99.5466 53.6006 99.8586 53.5313C99.9973 53.5139 100.162 53.5746 100.353 53.7133C100.543 53.8346 100.699 53.9733 100.821 54.1293C100.838 54.1466 100.847 54.1899 100.847 54.2593C100.847 54.3806 100.812 54.5193 100.743 54.6753C100.691 54.8139 100.63 54.9093 100.561 54.9613C98.6193 56.2093 96.5219 56.8333 94.2686 56.8333C93.6273 56.8333 92.9859 56.7813 92.3446 56.6773C91.8766 56.5906 91.3913 56.2786 90.8886 55.7413C90.5419 55.3599 90.3686 55.0306 90.3686 54.7533C90.3686 54.3893 90.6286 53.9646 91.1486 53.4793L92.2666 52.4653C93.5319 51.3386 94.2773 50.6626 94.5026 50.4373C94.5893 50.3506 94.6673 50.2206 94.7366 50.0473C94.8233 49.8739 94.8926 49.7353 94.9446 49.6313C94.8579 49.5966 94.7193 49.5446 94.5286 49.4753C94.3553 49.4059 94.1993 49.3539 94.0606 49.3193L93.3846 49.1893C92.7259 49.0853 92.1799 48.9466 91.7466 48.7733C91.3133 48.5826 90.9493 48.2446 90.6546 47.7593C90.8973 47.5339 91.1226 47.3693 91.3306 47.2653C91.5386 47.1613 91.7813 47.1093 92.0586 47.1093C92.2493 47.1093 92.4486 47.1353 92.6566 47.1873C94.0606 47.5686 95.4126 47.8113 96.7126 47.9153C97.0593 47.9326 97.3366 48.0279 97.5446 48.2013C97.7699 48.3746 97.9953 48.6173 98.2206 48.9293L98.5846 49.3453C98.6539 49.4146 98.6193 49.6139 98.4806 49.9433C98.3419 50.2553 98.1859 50.5066 98.0126 50.6973C97.2846 51.4253 96.1233 52.4999 94.5286 53.9213C94.4073 54.0253 94.2513 54.1293 94.0606 54.2333C93.8699 54.3373 93.7226 54.4153 93.6186 54.4673ZM105.729 47.1613C105.885 47.1439 106.015 47.1439 106.119 47.1613C106.223 47.1613 106.319 47.1613 106.405 47.1613C106.527 47.1439 106.709 47.1353 106.951 47.1353C108.13 47.1353 109.291 47.4733 110.435 48.1493C110.938 48.4613 111.189 48.7906 111.189 49.1373C111.189 49.5186 110.929 49.8566 110.409 50.1513C109.976 50.4113 109.525 50.7146 109.057 51.0613C108.225 51.6159 107.515 52.0493 106.925 52.3613C106.353 52.6733 105.721 52.8899 105.027 53.0113C104.923 53.0459 104.811 53.1413 104.689 53.2973C104.585 53.4359 104.542 53.5399 104.559 53.6093C104.594 53.7133 104.655 53.9299 104.741 54.2593C104.828 54.5713 104.923 54.8399 105.027 55.0653C105.149 55.2733 105.287 55.4466 105.443 55.5853C105.617 55.7239 105.877 55.7933 106.223 55.7933C106.57 55.7933 106.891 55.7413 107.185 55.6373C108.225 55.1519 109.213 54.5453 110.149 53.8173C110.427 53.6266 110.669 53.5313 110.877 53.5313C111.137 53.5313 111.415 53.6699 111.709 53.9473C111.917 54.1379 112.021 54.3373 112.021 54.5453C112.021 54.7706 111.857 55.0479 111.527 55.3773C110.054 56.8159 108.485 57.5353 106.821 57.5353C106.371 57.5353 105.816 57.4486 105.157 57.2753C104.048 56.9979 103.199 56.3826 102.609 55.4293C102.02 54.4759 101.725 53.3839 101.725 52.1533C101.725 51.7719 101.751 51.4079 101.803 51.0613C101.821 50.9399 101.855 50.6886 101.907 50.3073C101.977 49.9086 102.081 49.5793 102.219 49.3193C102.878 48.0193 104.048 47.2999 105.729 47.1613ZM107.237 49.0333C106.925 48.9293 106.648 48.8773 106.405 48.8773C106.007 48.8773 105.695 48.9986 105.469 49.2413C105.244 49.4839 105.062 49.8479 104.923 50.3333C105.339 50.3853 105.781 50.2813 106.249 50.0213C106.735 49.7439 107.064 49.4146 107.237 49.0333Z" fill="black"/>
</svg>
