<svg width="216" height="221" viewBox="0 0 216 221" fill="none" xmlns="http://www.w3.org/2000/svg">
<circle cx="109.627" cy="105.742" r="105.101" fill="#D63434" fill-opacity="0.5"/>
<path d="M206.501 113.68C206.501 171.88 160.63 218.989 104.132 218.989C47.6334 218.989 1.76172 171.88 1.76172 113.68C1.76172 55.4805 47.6334 8.37207 104.132 8.37207C160.63 8.37207 206.501 55.4805 206.501 113.68Z" stroke="black" stroke-width="3"/>
<path d="M72.4575 117.975C72.4575 117.975 85.9737 90.6987 109.627 90.6987C133.28 90.6987 146.797 117.975 146.797 117.975C146.797 117.975 133.28 145.251 109.627 145.251C85.9737 145.251 72.4575 117.975 72.4575 117.975Z" stroke="#1E1E1E" stroke-width="4" stroke-linecap="round" stroke-linejoin="round"/>
<path d="M109.627 128.203C115.226 128.203 119.764 123.624 119.764 117.975C119.764 112.326 115.226 107.746 109.627 107.746C104.028 107.746 99.4899 112.326 99.4899 117.975C99.4899 123.624 104.028 128.203 109.627 128.203Z" stroke="#1E1E1E" stroke-width="4" stroke-linecap="round" stroke-linejoin="round"/>
<path d="M174.226 59.6484C174.104 59.5098 174.018 59.3624 173.966 59.2064C173.931 59.0504 173.896 58.8338 173.862 58.5564C174.018 58.1924 174.304 58.0104 174.72 58.0104C174.928 58.0451 175.075 58.0624 175.162 58.0624C175.508 58.0624 175.725 57.9584 175.812 57.7504C175.898 57.5424 175.942 57.2998 175.942 57.0224C175.942 56.7451 175.942 56.5284 175.942 56.3724L176.02 54.8124C176.037 54.4658 176.054 54.0411 176.072 53.5384C176.106 53.0184 176.141 52.4204 176.176 51.7444C176.193 51.3804 176.28 51.1118 176.436 50.9384C176.609 50.7651 176.843 50.6784 177.138 50.6784C177.346 50.6784 177.51 50.6958 177.632 50.7304C178.342 50.8864 178.819 51.1118 179.062 51.4064C179.304 51.7011 179.469 52.1431 179.556 52.7324C179.573 52.8538 179.556 53.1051 179.504 53.4864L179.036 57.5424C179.018 57.6464 178.992 57.7764 178.958 57.9324C178.923 58.0711 178.906 58.1751 178.906 58.2444C178.906 58.4004 178.992 58.5044 179.166 58.5564C179.339 58.6084 179.66 58.6258 180.128 58.6084C180.925 58.4351 181.532 58.3224 181.948 58.2704C182.034 58.2531 182.173 58.2444 182.364 58.2444C182.572 58.2444 182.71 58.2704 182.78 58.3224C182.849 58.3571 182.901 58.4611 182.936 58.6344C182.988 58.7904 183.014 58.9724 183.014 59.1804C183.014 59.3711 182.988 59.5444 182.936 59.7004C182.901 59.8564 182.849 59.9431 182.78 59.9604C182.312 60.0991 181.757 60.2118 181.116 60.2984C180.353 60.4371 179.79 60.5584 179.426 60.6624C179.235 60.7144 179.044 60.8444 178.854 61.0524C178.663 61.2604 178.559 61.4511 178.542 61.6244C178.507 62.4738 178.481 63.3404 178.464 64.2244C178.446 64.9004 178.472 65.5764 178.542 66.2524C178.594 66.8244 178.706 67.2404 178.88 67.5004C179.053 67.7431 179.313 67.8644 179.66 67.8644C179.937 67.8644 180.336 67.7691 180.856 67.5784C181.133 67.4571 181.376 67.3964 181.584 67.3964C181.913 67.3964 182.147 67.5784 182.286 67.9424C182.338 68.0638 182.364 68.1851 182.364 68.3064C182.364 68.5318 182.277 68.7138 182.104 68.8524C181.948 68.9911 181.731 69.1124 181.454 69.2164C180.934 69.4071 180.405 69.5111 179.868 69.5284C179.14 69.5284 178.455 69.3551 177.814 69.0084C177.172 68.6444 176.661 68.1418 176.28 67.5004C175.916 66.8591 175.76 66.1224 175.812 65.2904C175.829 64.9611 175.838 64.4411 175.838 63.7304C175.838 62.6038 175.794 61.4598 175.708 60.2984C175.69 60.1944 175.63 60.1251 175.526 60.0904C175.422 60.0384 175.248 59.9864 175.006 59.9344C174.607 59.8651 174.347 59.7698 174.226 59.6484ZM189.276 65.2904C189.103 65.3944 188.851 65.4464 188.522 65.4464C188.401 65.4464 188.253 65.4378 188.08 65.4204C187.907 65.4031 187.759 65.4031 187.638 65.4204C187.777 65.9924 188.106 66.4604 188.626 66.8244C189.146 67.1711 189.727 67.3444 190.368 67.3444C190.923 67.3444 191.417 67.2231 191.85 66.9804C192.491 66.6511 193.046 66.2611 193.514 65.8104C193.843 65.4811 194.155 65.3164 194.45 65.3164C194.641 65.3164 194.805 65.4118 194.944 65.6024C195.083 65.8278 195.152 66.1051 195.152 66.4344C195.152 66.7811 195.083 67.0498 194.944 67.2404C194.493 67.9338 193.904 68.4104 193.176 68.6704C192.465 68.9304 191.633 69.0604 190.68 69.0604C189.692 69.0604 188.739 68.8438 187.82 68.4104C186.901 67.9771 186.113 67.3878 185.454 66.6424C184.813 65.8798 184.388 65.0391 184.18 64.1204C184.041 63.5831 183.972 63.0544 183.972 62.5344C183.972 61.7198 184.197 61.0611 184.648 60.5584C185.116 60.0558 185.861 59.5791 186.884 59.1284C187.82 58.7298 188.687 58.5304 189.484 58.5304C190.056 58.5304 190.611 58.6171 191.148 58.7904C192.812 59.3104 193.644 60.0211 193.644 60.9224C193.644 61.4944 193.306 62.1878 192.63 63.0024C192.301 63.3838 191.911 63.7218 191.46 64.0164C191.009 64.3111 190.567 64.5798 190.134 64.8224C189.718 65.0478 189.432 65.2038 189.276 65.2904ZM190.368 60.4804C190.351 60.3938 190.281 60.3244 190.16 60.2724C190.056 60.2031 189.995 60.1598 189.978 60.1424C189.51 60.1078 189.033 60.2464 188.548 60.5584C188.063 60.8531 187.655 61.2344 187.326 61.7024C187.014 62.1704 186.858 62.6211 186.858 63.0544L186.884 63.2624C186.901 63.3318 186.988 63.4184 187.144 63.5224C187.317 63.6264 187.421 63.6611 187.456 63.6264C188.687 62.7078 189.614 61.9711 190.238 61.4164C190.342 61.3124 190.394 61.1218 190.394 60.8444C190.394 60.6711 190.385 60.5498 190.368 60.4804ZM202.01 66.2784C201.802 67.1278 201.456 67.7864 200.97 68.2544C200.485 68.7224 199.913 68.9564 199.254 68.9564C198.405 68.9564 197.556 68.5924 196.706 67.8644C197.365 67.5178 197.781 67.3098 197.954 67.2404C198.405 67.0324 198.76 66.7464 199.02 66.3824C199.298 66.0184 199.436 65.6111 199.436 65.1604C199.436 65.0044 199.428 64.8831 199.41 64.7964C199.358 64.4151 199.272 64.0078 199.15 63.5744C199.029 63.1238 198.951 62.8291 198.916 62.6904C198.83 62.3958 198.717 61.9538 198.578 61.3644C198.474 60.9311 198.379 60.4891 198.292 60.0384C198.206 59.5878 198.162 59.1891 198.162 58.8424C198.162 58.2704 198.284 57.7504 198.526 57.2824C198.786 56.7971 199.22 56.3378 199.826 55.9044C200.086 55.7138 200.381 55.5491 200.71 55.4104C201.057 55.2718 201.386 55.1938 201.698 55.1764C201.924 55.1418 202.175 55.1851 202.452 55.3064C202.747 55.4278 202.929 55.5751 202.998 55.7484C203.068 55.9044 203.042 56.1298 202.92 56.4244C202.799 56.7018 202.652 56.9098 202.478 57.0484C201.473 57.7938 201.005 58.6258 201.074 59.5444C201.109 60.0644 201.248 60.8271 201.49 61.8324C201.664 62.4738 201.785 63.0284 201.854 63.4964C201.872 63.6351 201.915 63.9124 201.984 64.3284C202.071 64.7444 202.114 65.1258 202.114 65.4724C202.114 65.7844 202.08 66.0531 202.01 66.2784ZM205.202 59.6484C205.081 59.5098 204.994 59.3624 204.942 59.2064C204.908 59.0504 204.873 58.8338 204.838 58.5564C204.994 58.1924 205.28 58.0104 205.696 58.0104C205.904 58.0451 206.052 58.0624 206.138 58.0624C206.485 58.0624 206.702 57.9584 206.788 57.7504C206.875 57.5424 206.918 57.2998 206.918 57.0224C206.918 56.7451 206.918 56.5284 206.918 56.3724L206.996 54.8124C207.014 54.4658 207.031 54.0411 207.048 53.5384C207.083 53.0184 207.118 52.4204 207.152 51.7444C207.17 51.3804 207.256 51.1118 207.412 50.9384C207.586 50.7651 207.82 50.6784 208.114 50.6784C208.322 50.6784 208.487 50.6958 208.608 50.7304C209.319 50.8864 209.796 51.1118 210.038 51.4064C210.281 51.7011 210.446 52.1431 210.532 52.7324C210.55 52.8538 210.532 53.1051 210.48 53.4864L210.012 57.5424C209.995 57.6464 209.969 57.7764 209.934 57.9324C209.9 58.0711 209.882 58.1751 209.882 58.2444C209.882 58.4004 209.969 58.5044 210.142 58.5564C210.316 58.6084 210.636 58.6258 211.104 58.6084C211.902 58.4351 212.508 58.3224 212.924 58.2704C213.011 58.2531 213.15 58.2444 213.34 58.2444C213.548 58.2444 213.687 58.2704 213.756 58.3224C213.826 58.3571 213.878 58.4611 213.912 58.6344C213.964 58.7904 213.99 58.9724 213.99 59.1804C213.99 59.3711 213.964 59.5444 213.912 59.7004C213.878 59.8564 213.826 59.9431 213.756 59.9604C213.288 60.0991 212.734 60.2118 212.092 60.2984C211.33 60.4371 210.766 60.5584 210.402 60.6624C210.212 60.7144 210.021 60.8444 209.83 61.0524C209.64 61.2604 209.536 61.4511 209.518 61.6244C209.484 62.4738 209.458 63.3404 209.44 64.2244C209.423 64.9004 209.449 65.5764 209.518 66.2524C209.57 66.8244 209.683 67.2404 209.856 67.5004C210.03 67.7431 210.29 67.8644 210.636 67.8644C210.914 67.8644 211.312 67.7691 211.832 67.5784C212.11 67.4571 212.352 67.3964 212.56 67.3964C212.89 67.3964 213.124 67.5784 213.262 67.9424C213.314 68.0638 213.34 68.1851 213.34 68.3064C213.34 68.5318 213.254 68.7138 213.08 68.8524C212.924 68.9911 212.708 69.1124 212.43 69.2164C211.91 69.4071 211.382 69.5111 210.844 69.5284C210.116 69.5284 209.432 69.3551 208.79 69.0084C208.149 68.6444 207.638 68.1418 207.256 67.5004C206.892 66.8591 206.736 66.1224 206.788 65.2904C206.806 64.9611 206.814 64.4411 206.814 63.7304C206.814 62.6038 206.771 61.4598 206.684 60.2984C206.667 60.1944 206.606 60.1251 206.502 60.0904C206.398 60.0384 206.225 59.9864 205.982 59.9344C205.584 59.8651 205.324 59.7698 205.202 59.6484Z" fill="black"/>
</svg>
