<svg width="217" height="221" viewBox="0 0 217 221" fill="none" xmlns="http://www.w3.org/2000/svg">
<circle cx="110.227" cy="105.742" r="105.101" fill="#34D6D6" fill-opacity="0.5"/>
<path d="M207.101 113.68C207.101 171.88 161.229 218.989 104.731 218.989C48.2328 218.989 2.36108 171.88 2.36108 113.68C2.36108 55.4805 48.2328 8.37207 104.731 8.37207C161.229 8.37207 207.101 55.4805 207.101 113.68Z" stroke="black" stroke-width="3"/>
<path d="M121.626 78.7938C122.514 77.8983 123.567 77.1879 124.727 76.7033C125.886 76.2187 127.129 75.9692 128.384 75.9692C129.639 75.9692 130.882 76.2187 132.042 76.7033C133.201 77.1879 134.255 77.8983 135.142 78.7938C136.03 79.6892 136.734 80.7523 137.214 81.9223C137.694 83.0923 137.942 84.3463 137.942 85.6127C137.942 86.8791 137.694 88.1331 137.214 89.3031C136.734 90.4731 136.03 91.5362 135.142 92.4317L89.5252 138.46L70.9404 143.574L76.009 124.822L121.626 78.7938Z" stroke="#1E1E1E" stroke-width="4" stroke-linecap="round" stroke-linejoin="round"/>
<path d="M77.0527 125.879C78.0609 126.887 79.1809 128.007 80.329 129.155M90.0957 138.922C90.0957 138.922 87.961 136.787 85.1952 134.021M131.861 77.623L80.329 129.155M80.329 129.155C81.9756 130.802 83.6801 132.506 85.1952 134.021M136.727 82.4893L85.1952 134.021" stroke="black" stroke-width="4"/>
<path d="M149.336 183.338C149.353 183.355 149.136 183.164 148.686 182.766C148.374 182.488 148.14 182.289 147.984 182.168C148.053 181.7 148.226 181.37 148.504 181.18C148.781 180.989 149.145 180.842 149.596 180.738C150.064 180.616 150.566 180.556 151.104 180.556C151.624 180.556 152.152 180.608 152.69 180.712C154.232 180.989 155.593 181.31 156.772 181.674C157.95 182.038 159.051 182.549 160.074 183.208C160.784 183.641 161.382 184.152 161.868 184.742C162.578 185.66 162.934 186.596 162.934 187.55C162.934 188.364 162.665 189.205 162.128 190.072C160.082 193.313 157.976 195.87 155.81 197.742C154.492 198.903 153.036 199.856 151.442 200.602C150.852 200.896 150.237 201.044 149.596 201.044C148.833 201.044 148.096 200.827 147.386 200.394C147.126 200.22 146.926 200.038 146.788 199.848C146.649 199.674 146.58 199.466 146.58 199.224L146.606 198.99L146.788 197.638C146.996 196.043 147.186 194.856 147.36 194.076L147.49 193.504C148.01 191.25 148.4 189.439 148.66 188.07C148.92 186.683 149.11 185.262 149.232 183.806L149.336 183.338ZM152.768 183.026C152.56 183.008 152.282 183.026 151.936 183.078L151.364 183.156C151.78 183.502 152.083 183.806 152.274 184.066C152.464 184.326 152.56 184.603 152.56 184.898C152.56 184.967 152.542 185.088 152.508 185.262C152.282 186.267 151.979 187.506 151.598 188.98L150.662 192.724C150.246 194.422 149.882 196 149.57 197.456C149.518 197.646 149.483 197.863 149.466 198.106C149.466 198.331 149.466 198.496 149.466 198.6C149.622 198.669 149.708 198.704 149.726 198.704L150.064 198.574C152.664 197.308 154.882 195.54 156.72 193.27C157.465 192.316 158.089 191.415 158.592 190.566C159.112 189.716 159.502 188.824 159.762 187.888C159.831 187.662 159.866 187.394 159.866 187.082C159.866 186.544 159.727 186.059 159.45 185.626C159.19 185.192 158.826 184.863 158.358 184.638C156.624 183.858 154.761 183.32 152.768 183.026ZM168.958 195.74C168.785 195.844 168.533 195.896 168.204 195.896C168.083 195.896 167.935 195.887 167.762 195.87C167.589 195.852 167.441 195.852 167.32 195.87C167.459 196.442 167.788 196.91 168.308 197.274C168.828 197.62 169.409 197.794 170.05 197.794C170.605 197.794 171.099 197.672 171.532 197.43C172.173 197.1 172.728 196.71 173.196 196.26C173.525 195.93 173.837 195.766 174.132 195.766C174.323 195.766 174.487 195.861 174.626 196.052C174.765 196.277 174.834 196.554 174.834 196.884C174.834 197.23 174.765 197.499 174.626 197.69C174.175 198.383 173.586 198.86 172.858 199.12C172.147 199.38 171.315 199.51 170.362 199.51C169.374 199.51 168.421 199.293 167.502 198.86C166.583 198.426 165.795 197.837 165.136 197.092C164.495 196.329 164.07 195.488 163.862 194.57C163.723 194.032 163.654 193.504 163.654 192.984C163.654 192.169 163.879 191.51 164.33 191.008C164.798 190.505 165.543 190.028 166.566 189.578C167.502 189.179 168.369 188.98 169.166 188.98C169.738 188.98 170.293 189.066 170.83 189.24C172.494 189.76 173.326 190.47 173.326 191.372C173.326 191.944 172.988 192.637 172.312 193.452C171.983 193.833 171.593 194.171 171.142 194.466C170.691 194.76 170.249 195.029 169.816 195.272C169.4 195.497 169.114 195.653 168.958 195.74ZM170.05 190.93C170.033 190.843 169.963 190.774 169.842 190.722C169.738 190.652 169.677 190.609 169.66 190.592C169.192 190.557 168.715 190.696 168.23 191.008C167.745 191.302 167.337 191.684 167.008 192.152C166.696 192.62 166.54 193.07 166.54 193.504L166.566 193.712C166.583 193.781 166.67 193.868 166.826 193.972C166.999 194.076 167.103 194.11 167.138 194.076C168.369 193.157 169.296 192.42 169.92 191.866C170.024 191.762 170.076 191.571 170.076 191.294C170.076 191.12 170.067 190.999 170.05 190.93ZM188.868 193.166C188.903 193.928 188.92 194.509 188.92 194.908C188.92 195.844 188.851 196.71 188.712 197.508C188.591 198.305 188.365 199.068 188.036 199.796C187.967 199.796 187.802 199.761 187.542 199.692C187.299 199.622 187.135 199.596 187.048 199.614C186.84 199.51 186.71 199.362 186.658 199.172C186.606 198.981 186.589 198.669 186.606 198.236C186.623 198.097 186.632 197.872 186.632 197.56L186.606 196.312C186.571 195.722 186.554 195.254 186.554 194.908C186.554 194.197 186.597 193.547 186.684 192.958C186.199 193.027 185.523 193.062 184.656 193.062H183.564C183.131 193.062 182.819 193.07 182.628 193.088C181.813 193.14 181.406 193.443 181.406 193.998C181.406 194.136 181.432 194.301 181.484 194.492C181.657 195.168 181.831 196.216 182.004 197.638C182.125 198.73 182.255 199.648 182.394 200.394C182.55 201.156 182.801 201.876 183.148 202.552C183.183 202.621 183.2 202.673 183.2 202.708C183.2 203.037 183.044 203.34 182.732 203.618C182.42 203.912 182.091 204.06 181.744 204.06C181.345 204.06 181.042 203.834 180.834 203.384C180.643 202.95 180.479 202.491 180.34 202.006C180.201 201.538 180.045 200.94 179.872 200.212C179.699 199.501 179.586 199.042 179.534 198.834C179.343 198.14 179.187 197.204 179.066 196.026C178.927 194.882 178.789 194.041 178.65 193.504C178.633 193.417 178.581 193.356 178.494 193.322C178.407 193.27 178.303 193.235 178.182 193.218C178.061 193.183 177.965 193.148 177.896 193.114C177.792 193.044 177.619 192.992 177.376 192.958C177.151 192.906 176.986 192.854 176.882 192.802C176.761 192.75 176.648 192.672 176.544 192.568C176.44 192.446 176.388 192.342 176.388 192.256C176.388 192.152 176.44 192.039 176.544 191.918C176.665 191.779 176.778 191.701 176.882 191.684C177.61 191.58 178.104 191.415 178.364 191.19C178.624 190.964 178.754 190.652 178.754 190.254C178.754 190.132 178.737 189.898 178.702 189.552C178.598 188.564 178.546 187.766 178.546 187.16C178.546 186.761 178.572 186.458 178.624 186.25L178.78 185.496C178.884 184.976 178.979 184.56 179.066 184.248C179.17 183.918 179.317 183.572 179.508 183.208C179.924 182.497 180.635 182.142 181.64 182.142C181.796 182.142 181.995 182.159 182.238 182.194C182.515 182.246 182.793 182.367 183.07 182.558C183.347 182.748 183.607 182.948 183.85 183.156C184.093 183.364 184.266 183.511 184.37 183.598C184.526 183.719 184.665 183.901 184.786 184.144C184.907 184.386 184.968 184.62 184.968 184.846C184.968 184.898 184.951 184.976 184.916 185.08C184.777 185.478 184.474 185.678 184.006 185.678C183.781 185.678 183.538 185.634 183.278 185.548C182.845 185.426 182.481 185.366 182.186 185.366C181.839 185.366 181.597 185.47 181.458 185.678C181.337 185.868 181.276 186.198 181.276 186.666L181.302 187.238C181.337 187.862 181.354 188.312 181.354 188.59C181.354 189.11 181.328 189.63 181.276 190.15C181.189 190.878 181.519 191.216 182.264 191.164C182.385 191.146 182.559 191.138 182.784 191.138C183.044 191.138 183.434 191.155 183.954 191.19C185.722 191.172 186.892 191.216 187.464 191.32C187.585 191.354 187.689 191.415 187.776 191.502C188.123 191.588 188.383 191.684 188.556 191.788C188.729 191.874 188.825 192.048 188.842 192.308L188.868 193.166ZM195.681 189.994C195.681 190.098 195.664 190.236 195.629 190.41C195.594 190.566 195.586 190.67 195.603 190.722C196.799 190.462 197.813 190.332 198.645 190.332C199.945 190.332 200.924 190.956 201.583 192.204C202.12 193.261 202.389 194.431 202.389 195.714C202.389 196.043 202.354 196.52 202.285 197.144C202.233 197.56 202.068 197.898 201.791 198.158C201.514 198.4 201.184 198.522 200.803 198.522C200.404 198.522 200.118 198.452 199.945 198.314C199.789 198.158 199.694 197.984 199.659 197.794C199.642 197.603 199.633 197.3 199.633 196.884L199.607 196.338C199.572 195.298 199.503 194.396 199.399 193.634C199.347 193.322 199.226 193.105 199.035 192.984C198.862 192.845 198.628 192.776 198.333 192.776C198.056 192.776 197.726 192.819 197.345 192.906C196.756 193.062 196.357 193.183 196.149 193.27C195.958 193.356 195.672 193.538 195.291 193.816C195.17 193.902 195.083 194.076 195.031 194.336C194.979 194.596 194.953 194.743 194.953 194.778C194.728 195.887 194.485 197.213 194.225 198.756C194.208 198.825 194.173 198.99 194.121 199.25C194.069 199.51 193.965 199.692 193.809 199.796C193.67 199.917 193.462 199.96 193.185 199.926C192.093 199.787 191.538 199.328 191.521 198.548C191.504 197.542 191.582 196.355 191.755 194.986C191.876 193.998 191.989 193.2 192.093 192.594C192.128 192.316 192.171 191.978 192.223 191.58C192.292 191.181 192.353 190.722 192.405 190.202C192.457 189.803 192.509 189.508 192.561 189.318C192.613 189.127 192.734 188.971 192.925 188.85C193.116 188.711 193.41 188.642 193.809 188.642C194.312 188.642 194.728 188.754 195.057 188.98C195.386 189.205 195.594 189.526 195.681 189.942V189.994ZM209.685 195.74C209.511 195.844 209.26 195.896 208.931 195.896C208.809 195.896 208.662 195.887 208.489 195.87C208.315 195.852 208.168 195.852 208.047 195.87C208.185 196.442 208.515 196.91 209.035 197.274C209.555 197.62 210.135 197.794 210.777 197.794C211.331 197.794 211.825 197.672 212.259 197.43C212.9 197.1 213.455 196.71 213.923 196.26C214.252 195.93 214.564 195.766 214.859 195.766C215.049 195.766 215.214 195.861 215.353 196.052C215.491 196.277 215.561 196.554 215.561 196.884C215.561 197.23 215.491 197.499 215.353 197.69C214.902 198.383 214.313 198.86 213.585 199.12C212.874 199.38 212.042 199.51 211.089 199.51C210.101 199.51 209.147 199.293 208.229 198.86C207.31 198.426 206.521 197.837 205.863 197.092C205.221 196.329 204.797 195.488 204.589 194.57C204.45 194.032 204.381 193.504 204.381 192.984C204.381 192.169 204.606 191.51 205.057 191.008C205.525 190.505 206.27 190.028 207.293 189.578C208.229 189.179 209.095 188.98 209.893 188.98C210.465 188.98 211.019 189.066 211.557 189.24C213.221 189.76 214.053 190.47 214.053 191.372C214.053 191.944 213.715 192.637 213.039 193.452C212.709 193.833 212.319 194.171 211.869 194.466C211.418 194.76 210.976 195.029 210.543 195.272C210.127 195.497 209.841 195.653 209.685 195.74ZM210.777 190.93C210.759 190.843 210.69 190.774 210.569 190.722C210.465 190.652 210.404 190.609 210.387 190.592C209.919 190.557 209.442 190.696 208.957 191.008C208.471 191.302 208.064 191.684 207.735 192.152C207.423 192.62 207.267 193.07 207.267 193.504L207.293 193.712C207.31 193.781 207.397 193.868 207.553 193.972C207.726 194.076 207.83 194.11 207.865 194.076C209.095 193.157 210.023 192.42 210.647 191.866C210.751 191.762 210.803 191.571 210.803 191.294C210.803 191.12 210.794 190.999 210.777 190.93Z" fill="black"/>
</svg>
