<svg width="220" height="221" viewBox="0 0 220 221" fill="none" xmlns="http://www.w3.org/2000/svg">
<circle cx="114.693" cy="105.742" r="105.101" fill="#345AD6" fill-opacity="0.5"/>
<path d="M211.567 113.68C211.567 171.88 165.696 218.989 109.198 218.989C52.6996 218.989 6.82788 171.88 6.82788 113.68C6.82788 55.4805 52.6996 8.37207 109.198 8.37207C165.696 8.37207 211.567 55.4805 211.567 113.68Z" stroke="black" stroke-width="3"/>
<mask id="path-3-inside-1_629_1649" fill="white">
<path fill-rule="evenodd" clip-rule="evenodd" d="M126.933 133.866C136.193 128.562 142.428 118.61 142.428 107.209C142.428 90.2357 128.611 76.4763 111.567 76.4763C94.5224 76.4763 80.7053 90.2357 80.7053 107.209C80.7053 118.61 86.9401 128.562 96.1997 133.866V148.73H126.933V133.866Z"/>
</mask>
<path d="M126.933 133.866L125.442 131.263L123.933 132.127V133.866H126.933ZM96.1997 133.866H99.1997V132.127L97.691 131.263L96.1997 133.866ZM96.1997 148.73H93.1997V151.73H96.1997V148.73ZM126.933 148.73V151.73H129.933V148.73H126.933ZM139.428 107.209C139.428 117.487 133.811 126.469 125.442 131.263L128.425 136.469C138.575 130.654 145.428 119.733 145.428 107.209H139.428ZM111.567 79.4763C126.966 79.4763 139.428 91.9044 139.428 107.209H145.428C145.428 88.567 130.256 73.4763 111.567 73.4763V79.4763ZM83.7053 107.209C83.7053 91.9044 96.1674 79.4763 111.567 79.4763V73.4763C92.8774 73.4763 77.7053 88.567 77.7053 107.209H83.7053ZM97.691 131.263C89.3225 126.469 83.7053 117.487 83.7053 107.209H77.7053C77.7053 119.733 84.5578 130.654 94.7084 136.469L97.691 131.263ZM99.1997 148.73V133.866H93.1997V148.73H99.1997ZM126.933 145.73H96.1997V151.73H126.933V145.73ZM123.933 133.866V148.73H129.933V133.866H123.933Z" fill="black" mask="url(#path-3-inside-1_629_1649)"/>
<rect x="97.2576" y="150.76" width="28.618" height="4.10452" rx="2.05226" stroke="black" stroke-width="2"/>
<rect x="100.337" y="157.893" width="22.4587" height="3.12344" rx="1.56172" stroke="black" stroke-width="2"/>
<rect x="103.086" y="164.038" width="16.9618" height="1.98435" rx="0.992174" stroke="black" stroke-width="1.98435"/>
<path d="M120.727 82.7495C122.046 83.3661 126.406 85.8055 128.533 87.3333C130.594 88.8142 133.231 91.5399 134.271 93.3168C139.569 102.371 138.809 109.9 138.809 109.9" stroke="black" stroke-width="3" stroke-linecap="round"/>
<path d="M111.102 60.3464V71.8847" stroke="black" stroke-width="3" stroke-linecap="round"/>
<path d="M96.4116 64.0527L102.273 73.2428" stroke="black" stroke-width="3" stroke-linecap="round"/>
<path d="M83.4102 71.0437L92.0242 78.0594" stroke="black" stroke-width="3" stroke-linecap="round"/>
<path d="M76.6079 82.7495L83.5132 85.9419" stroke="black" stroke-width="3" stroke-linecap="round"/>
<path d="M126.437 63.1089L121.596 73.2428" stroke="black" stroke-width="3" stroke-linecap="round"/>
<path d="M141.045 71.4771L132.321 78.4928" stroke="black" stroke-width="3" stroke-linecap="round"/>
<path d="M146.746 83.0866L138.632 86.375" stroke="black" stroke-width="3" stroke-linecap="round"/>
<path d="M5.68427 32.533C5.32027 32.637 4.98227 32.689 4.67027 32.689C3.83827 32.689 3.04094 32.325 2.27827 31.597C2.38227 31.2156 2.5556 30.9383 2.79827 30.765C3.04094 30.5743 3.2836 30.427 3.52627 30.323C3.76894 30.219 3.9336 30.1496 4.02027 30.115C4.95627 29.7163 5.9356 29.3696 6.95827 29.075C7.39161 28.9363 7.66027 28.659 7.76427 28.243C8.07627 27.1856 8.31894 26.1456 8.49227 25.123C8.66561 24.083 8.87361 22.6876 9.11627 20.937L9.22027 20.131C9.23761 20.079 9.24627 20.001 9.24627 19.897C9.24627 19.533 9.06427 19.2816 8.70027 19.143C8.57894 19.091 8.44027 19.0043 8.28427 18.883C8.12827 18.7443 8.00694 18.6403 7.92027 18.571L7.29627 18.883C6.79361 19.1083 6.22161 19.3856 5.58027 19.715C5.35494 19.8363 5.12094 19.897 4.87827 19.897C4.61827 19.897 4.34094 19.8363 4.04627 19.715C3.76894 19.5763 3.60427 19.4983 3.55227 19.481C3.39627 19.4116 3.26627 19.3076 3.16227 19.169C3.0756 19.0303 3.03227 18.883 3.03227 18.727C3.03227 18.519 3.1016 18.3196 3.24027 18.129C3.43094 17.8516 3.7256 17.5656 4.12427 17.271C5.68427 16.1096 7.33094 15.529 9.06427 15.529C9.86161 15.529 10.6503 15.6416 11.4303 15.867C12.1583 16.0923 12.7909 16.283 13.3283 16.439C13.8829 16.5776 14.3423 16.699 14.7063 16.803L16.3443 17.271C16.3789 17.271 16.4483 17.2796 16.5523 17.297C16.6736 17.3143 16.7603 17.349 16.8123 17.401C16.9163 17.4876 17.0203 17.609 17.1243 17.765C17.2456 17.9036 17.3409 18.0163 17.4103 18.103C17.3236 18.1723 17.2023 18.2763 17.0463 18.415C16.9076 18.5536 16.7776 18.623 16.6563 18.623C16.5176 18.6403 16.3009 18.649 16.0063 18.649C15.7809 18.649 15.4429 18.6316 14.9923 18.597L14.4203 18.571L12.5743 18.363L12.4443 19.299C12.2189 20.9283 12.0196 22.2196 11.8463 23.173C11.7076 24.005 11.4823 25.123 11.1703 26.527L10.8583 28.061C12.0369 27.905 12.8343 27.801 13.2503 27.749C14.1863 27.645 14.8883 27.593 15.3563 27.593C15.9283 27.593 16.4049 27.671 16.7863 27.827C17.1676 27.983 17.4363 28.3036 17.5923 28.789C17.4189 29.0143 17.2196 29.179 16.9943 29.283C16.7863 29.387 16.5696 29.465 16.3443 29.517C16.1363 29.569 16.0063 29.6036 15.9543 29.621L15.4603 29.777C14.4203 30.089 13.7096 30.271 13.3283 30.323C12.5136 30.4443 11.7163 30.6176 10.9363 30.843C10.1736 31.0683 9.22027 31.3716 8.07627 31.753C7.33094 32.0303 6.5336 32.2903 5.68427 32.533ZM30.0841 30.063C30.1187 30.3576 30.2487 30.739 30.4741 31.207C30.5087 31.2936 30.5434 31.389 30.5781 31.493C30.6301 31.597 30.6821 31.7183 30.7341 31.857C30.1447 32.1863 29.6767 32.351 29.3301 32.351C29.0701 32.351 28.8274 32.273 28.6021 32.117C28.3767 31.9436 28.1254 31.675 27.8481 31.311C27.6401 31.0683 27.4667 30.947 27.3281 30.947C27.1894 30.947 27.0421 31.0596 26.8861 31.285C26.5394 31.805 26.1061 32.195 25.5861 32.455C25.0834 32.715 24.5461 32.845 23.9741 32.845C23.3327 32.845 22.7087 32.6976 22.1021 32.403C21.5127 32.091 21.0534 31.675 20.7241 31.155C20.3774 30.6176 20.2041 29.8203 20.2041 28.763C20.2041 28.0003 20.3081 27.229 20.5161 26.449C20.7241 25.669 21.0187 25.0276 21.4001 24.525C21.8161 23.953 22.3101 23.5023 22.8821 23.173C23.4541 22.8263 24.0867 22.653 24.7801 22.653C25.0054 22.653 25.1787 22.6616 25.3001 22.679C25.3521 22.6963 25.4301 22.705 25.5341 22.705C25.9327 22.705 26.1321 22.5143 26.1321 22.133L26.1061 21.925C25.8634 19.9316 25.6467 18.467 25.4561 17.531C25.4387 17.4443 25.4127 17.3056 25.3781 17.115C25.3434 16.9243 25.3261 16.7683 25.3261 16.647C25.3261 16.4043 25.3781 16.1963 25.4821 16.023C25.5861 15.8323 25.7681 15.6763 26.0281 15.555C26.1321 15.503 26.2534 15.477 26.3921 15.477C26.7561 15.477 27.1374 15.5983 27.5361 15.841C27.9347 16.0663 28.1687 16.3263 28.2381 16.621C28.4981 17.6956 28.7407 19.091 28.9661 20.807L29.4341 24.759C29.7114 27.1163 29.9281 28.8843 30.0841 30.063ZM23.1421 26.813C22.8474 27.6623 22.7001 28.4423 22.7001 29.153C22.7001 30.141 23.0467 30.869 23.7401 31.337C24.0174 31.181 24.2341 31.0076 24.3901 30.817C24.5634 30.609 24.7627 30.3143 24.9881 29.933L25.2741 29.439C25.6727 28.867 25.9327 28.2256 26.0541 27.515C26.1927 26.8043 26.2794 25.903 26.3141 24.811C26.3314 24.655 26.2967 24.4816 26.2101 24.291C26.1407 24.083 26.0627 23.9703 25.9761 23.953C25.8374 23.9183 25.6034 23.9616 25.2741 24.083C24.9447 24.187 24.7367 24.2996 24.6501 24.421C24.2514 24.889 23.9307 25.2963 23.6881 25.643C23.4627 25.9896 23.2807 26.3796 23.1421 26.813ZM36.555 22.965C36.711 22.9476 36.841 22.9476 36.945 22.965C37.049 22.965 37.1443 22.965 37.231 22.965C37.3523 22.9476 37.5343 22.939 37.777 22.939C38.9557 22.939 40.117 23.277 41.261 23.953C41.7637 24.265 42.015 24.5943 42.015 24.941C42.015 25.3223 41.755 25.6603 41.235 25.955C40.8017 26.215 40.351 26.5183 39.883 26.865C39.051 27.4196 38.3403 27.853 37.751 28.165C37.179 28.477 36.5463 28.6936 35.853 28.815C35.749 28.8496 35.6363 28.945 35.515 29.101C35.411 29.2396 35.3677 29.3436 35.385 29.413C35.4197 29.517 35.4803 29.7336 35.567 30.063C35.6537 30.375 35.749 30.6436 35.853 30.869C35.9743 31.077 36.113 31.2503 36.269 31.389C36.4423 31.5276 36.7023 31.597 37.049 31.597C37.3957 31.597 37.7163 31.545 38.011 31.441C39.051 30.9556 40.039 30.349 40.975 29.621C41.2523 29.4303 41.495 29.335 41.703 29.335C41.963 29.335 42.2403 29.4736 42.535 29.751C42.743 29.9416 42.847 30.141 42.847 30.349C42.847 30.5743 42.6823 30.8516 42.353 31.181C40.8797 32.6196 39.311 33.339 37.647 33.339C37.1963 33.339 36.6417 33.2523 35.983 33.079C34.8737 32.8016 34.0243 32.1863 33.435 31.233C32.8457 30.2796 32.551 29.1876 32.551 27.957C32.551 27.5756 32.577 27.2116 32.629 26.865C32.6463 26.7436 32.681 26.4923 32.733 26.111C32.8023 25.7123 32.9063 25.383 33.045 25.123C33.7037 23.823 34.8737 23.1036 36.555 22.965ZM38.063 24.837C37.751 24.733 37.4737 24.681 37.231 24.681C36.8323 24.681 36.5203 24.8023 36.295 25.045C36.0697 25.2876 35.8877 25.6516 35.749 26.137C36.165 26.189 36.607 26.085 37.075 25.825C37.5603 25.5476 37.8897 25.2183 38.063 24.837ZM52.5852 31.779C52.4292 31.7096 52.2732 31.675 52.1172 31.675C51.9612 31.675 51.8226 31.7183 51.7012 31.805C51.5972 31.8743 51.4759 31.987 51.3372 32.143C51.1292 32.351 50.9126 32.5243 50.6872 32.663C50.4792 32.7843 50.0979 32.897 49.5432 33.001C49.3006 33.0356 49.1012 33.053 48.9452 33.053C48.2172 33.053 47.4546 32.897 46.6572 32.585C45.8772 32.2556 45.3226 31.8656 44.9932 31.415C44.6466 30.9296 44.4819 30.4096 44.4992 29.855C44.5166 29.023 44.8632 28.191 45.5392 27.359C46.1979 26.5616 46.7959 25.9983 47.3332 25.669C47.8879 25.3396 48.6419 25.1316 49.5952 25.045C49.8032 25.045 50.0979 25.0103 50.4792 24.941C50.8779 24.8716 51.0772 24.7763 51.0772 24.655C51.0772 24.4123 50.9646 24.1956 50.7392 24.005C50.5312 23.797 50.0979 23.693 49.4392 23.693C49.1966 23.693 48.8326 23.7103 48.3472 23.745C47.8619 23.7796 47.5239 23.797 47.3332 23.797C46.7439 23.797 46.3192 23.7016 46.0592 23.511C45.9899 23.4763 45.9552 23.3116 45.9552 23.017C45.9552 22.497 46.1372 22.1676 46.5012 22.029C47.2466 21.7516 48.0179 21.6043 48.8152 21.587C49.8206 21.587 50.7479 21.8123 51.5972 22.263C52.4639 22.6963 53.0966 23.2423 53.4952 23.901C53.8939 24.5596 54.1539 25.4696 54.2752 26.631C54.4139 27.931 54.4832 29.5863 54.4832 31.597C54.4832 32.1516 54.4052 32.4723 54.2492 32.559C54.1106 32.6456 53.9806 32.689 53.8592 32.689C53.7032 32.689 53.5559 32.6456 53.4172 32.559C53.2959 32.455 53.1572 32.3163 53.0012 32.143C52.8452 31.9523 52.7066 31.831 52.5852 31.779ZM48.4772 31.467C49.2919 31.2243 50.0892 30.8343 50.8692 30.297C51.0426 30.1756 51.1986 30.0196 51.3372 29.829C51.4759 29.6383 51.5626 29.517 51.5972 29.465C51.6319 29.413 51.6579 29.2656 51.6752 29.023C51.7099 28.763 51.7186 28.555 51.7012 28.399C51.6839 28.347 51.6492 28.2083 51.5972 27.983C51.5626 27.7576 51.5019 27.5583 51.4152 27.385C51.3286 27.2463 51.1899 27.1163 50.9992 26.995C50.8086 26.8736 50.6352 26.8216 50.4792 26.839C50.1499 26.8563 49.7946 26.9776 49.4132 27.203C49.0319 27.4283 48.6766 27.7316 48.3472 28.113C48.0179 28.5116 47.7579 28.919 47.5672 29.335C47.3939 29.7336 47.3072 30.1063 47.3072 30.453C47.3419 30.921 47.4719 31.233 47.6972 31.389C47.8186 31.4756 47.9659 31.519 48.1392 31.519C48.2779 31.519 48.3906 31.5016 48.4772 31.467ZM63.151 20.079C63.2376 20.0443 63.4283 20.0183 63.723 20.001C64.035 19.9663 64.3123 19.949 64.555 19.949C65.0403 19.949 65.4823 20.2523 65.881 20.859L65.543 21.119C65.1443 21.4136 64.5723 21.639 63.827 21.795C63.1683 22.1243 62.6743 22.4016 62.345 22.627C62.033 22.8523 61.799 23.1036 61.643 23.381C61.5043 23.6583 61.435 24.0136 61.435 24.447C61.435 24.655 61.487 25.1923 61.591 26.059L61.721 27.151C61.8596 28.4856 61.981 29.465 62.085 30.089C62.1196 30.3143 62.189 30.583 62.293 30.895C62.4143 31.1896 62.5356 31.363 62.657 31.415C62.7783 31.467 63.021 31.3803 63.385 31.155C64.0783 30.323 64.529 29.7423 64.737 29.413C64.789 29.3263 64.8756 29.179 64.997 28.971C65.1183 28.763 65.2396 28.607 65.361 28.503C65.4823 28.3816 65.6296 28.321 65.803 28.321C65.8376 28.321 65.9243 28.3383 66.063 28.373C66.3403 28.4596 66.557 28.5896 66.713 28.763C66.8863 28.9363 66.973 29.1876 66.973 29.517C66.973 29.673 66.9643 29.7856 66.947 29.855C66.843 30.5483 66.6003 31.1723 66.219 31.727C65.8376 32.2816 65.335 32.8276 64.711 33.365C64.4683 33.5903 64.0696 33.703 63.515 33.703C62.9083 33.703 62.3103 33.5643 61.721 33.287C61.1316 33.027 60.733 32.6803 60.525 32.247C59.9876 31.0856 59.485 29.6036 59.017 27.801C58.8956 27.2983 58.8003 26.501 58.731 25.409L58.653 24.447C58.6183 24.0483 58.6183 23.745 58.653 23.537C58.6876 23.3116 58.3496 23.173 57.639 23.121C57.379 23.1036 57.249 22.9303 57.249 22.601C57.4223 22.0463 57.691 21.717 58.055 21.613C58.4016 21.509 58.6183 21.2923 58.705 20.963C58.7916 20.6163 58.861 20.261 58.913 19.897C59.069 18.7703 59.1036 17.5136 59.017 16.127C58.9823 15.4683 59.1816 15.087 59.615 14.983L59.849 15.009C59.9356 15.0263 60.135 15.061 60.447 15.113C60.759 15.1476 61.0363 15.2256 61.279 15.347C61.8856 15.6763 62.189 16.257 62.189 17.089C62.189 17.4356 62.1196 17.8863 61.981 18.441C61.9636 18.5276 61.9376 18.6056 61.903 18.675C61.8683 18.7443 61.8423 18.8223 61.825 18.909C61.773 19.169 61.747 19.3856 61.747 19.559C61.591 20.079 61.7123 20.339 62.111 20.339C62.2496 20.339 62.5963 20.2523 63.151 20.079ZM72.7874 22.965C72.9434 22.9476 73.0734 22.9476 73.1774 22.965C73.2814 22.965 73.3768 22.965 73.4634 22.965C73.5848 22.9476 73.7668 22.939 74.0094 22.939C75.1881 22.939 76.3494 23.277 77.4934 23.953C77.9961 24.265 78.2474 24.5943 78.2474 24.941C78.2474 25.3223 77.9874 25.6603 77.4674 25.955C77.0341 26.215 76.5834 26.5183 76.1154 26.865C75.2834 27.4196 74.5728 27.853 73.9834 28.165C73.4114 28.477 72.7788 28.6936 72.0854 28.815C71.9814 28.8496 71.8688 28.945 71.7474 29.101C71.6434 29.2396 71.6001 29.3436 71.6174 29.413C71.6521 29.517 71.7128 29.7336 71.7994 30.063C71.8861 30.375 71.9814 30.6436 72.0854 30.869C72.2068 31.077 72.3454 31.2503 72.5014 31.389C72.6748 31.5276 72.9348 31.597 73.2814 31.597C73.6281 31.597 73.9488 31.545 74.2434 31.441C75.2834 30.9556 76.2714 30.349 77.2074 29.621C77.4848 29.4303 77.7274 29.335 77.9354 29.335C78.1954 29.335 78.4728 29.4736 78.7674 29.751C78.9754 29.9416 79.0794 30.141 79.0794 30.349C79.0794 30.5743 78.9148 30.8516 78.5854 31.181C77.1121 32.6196 75.5434 33.339 73.8794 33.339C73.4288 33.339 72.8741 33.2523 72.2154 33.079C71.1061 32.8016 70.2568 32.1863 69.6674 31.233C69.0781 30.2796 68.7834 29.1876 68.7834 27.957C68.7834 27.5756 68.8094 27.2116 68.8614 26.865C68.8788 26.7436 68.9134 26.4923 68.9654 26.111C69.0348 25.7123 69.1388 25.383 69.2774 25.123C69.9361 23.823 71.1061 23.1036 72.7874 22.965ZM74.2954 24.837C73.9834 24.733 73.7061 24.681 73.4634 24.681C73.0648 24.681 72.7528 24.8023 72.5274 25.045C72.3021 25.2876 72.1201 25.6516 71.9814 26.137C72.3974 26.189 72.8394 26.085 73.3074 25.825C73.7928 25.5476 74.1221 25.2183 74.2954 24.837Z" fill="black"/>
</svg>
