<svg width="225" height="221" viewBox="0 0 225 221" fill="none" xmlns="http://www.w3.org/2000/svg">
<circle cx="110.16" cy="105.742" r="105.101" fill="#BE34D6" fill-opacity="0.5"/>
<path d="M207.034 113.68C207.034 171.88 161.163 218.989 104.664 218.989C48.1664 218.989 2.29468 171.88 2.29468 113.68C2.29468 55.4805 48.1664 8.37207 104.664 8.37207C161.163 8.37207 207.034 55.4805 207.034 113.68Z" stroke="black" stroke-width="3"/>
<mask id="path-3-inside-1_629_1648" fill="white">
<path d="M165.534 74.5889H171.533V158.889H55.7677V153.86V153.829V74.5889H165.503H165.534Z"/>
<path d="M164.552 72.6617H54.8098C54.2796 72.6617 53.8513 73.0928 53.851 73.6253V152.873H48.7866V68.5652H164.552V72.6617Z"/>
</mask>
<path d="M165.534 74.5889H171.533V158.889H55.7677V153.86V153.829V74.5889H165.503H165.534Z" stroke="black" stroke-width="4" mask="url(#path-3-inside-1_629_1648)"/>
<path d="M164.552 72.6617H54.8098C54.2796 72.6617 53.8513 73.0928 53.851 73.6253V152.873H48.7866V68.5652H164.552V72.6617Z" stroke="black" stroke-width="4" mask="url(#path-3-inside-1_629_1648)"/>
<path d="M128.049 195.698C127.72 195.819 127.451 195.88 127.243 195.88C126.862 195.88 126.498 195.75 126.151 195.49C125.822 195.23 125.545 194.874 125.319 194.424L126.047 193.956C126.879 193.401 127.495 192.976 127.893 192.682C129.228 191.642 130.389 190.671 131.377 189.77C131.568 189.614 131.793 189.293 132.053 188.808L132.417 188.184L131.949 187.95C131.897 187.932 131.776 187.889 131.585 187.82C131.412 187.733 131.265 187.681 131.143 187.664C129.635 187.508 127.945 187.369 126.073 187.248C125.484 187.196 125.103 187.516 124.929 188.21L122.745 198.324C122.624 198.844 122.529 199.303 122.459 199.702C122.39 200.083 122.329 200.404 122.277 200.664L122.043 201.834C121.974 202.111 121.861 202.336 121.705 202.51C121.549 202.666 121.324 202.752 121.029 202.77L120.691 202.796C120.362 202.796 120.128 202.718 119.989 202.562C119.868 202.406 119.816 202.128 119.833 201.73L119.885 200.69C119.989 198.644 120.119 197.11 120.275 196.088C120.379 195.342 120.527 194.519 120.717 193.618C120.925 192.716 121.064 192.127 121.133 191.85C121.376 190.844 121.549 190.082 121.653 189.562L120.301 189.328C120.093 188.877 119.989 188.487 119.989 188.158C119.989 187.603 120.249 187.04 120.769 186.468C121.133 186.052 121.567 185.714 122.069 185.454C122.572 185.194 123.092 185.02 123.629 184.934C124.409 184.847 125.103 184.804 125.709 184.804C128.084 184.804 130.493 185.306 132.937 186.312C133.232 186.433 133.527 186.624 133.821 186.884C134.116 187.126 134.307 187.282 134.393 187.352C135.069 187.924 135.407 188.522 135.407 189.146C135.407 189.562 135.277 190.021 135.017 190.524C134.879 190.818 134.645 191.156 134.315 191.538C132.703 193.306 130.615 194.692 128.049 195.698ZM135.92 200.17C135.955 199.927 135.972 199.572 135.972 199.104L135.946 197.57L135.634 193.046L135.608 192.656C135.608 191.737 135.998 191.278 136.778 191.278C136.969 191.278 137.134 191.347 137.272 191.486C137.428 191.624 137.567 191.694 137.688 191.694C137.948 191.694 138.174 191.581 138.364 191.356C138.572 191.113 138.789 190.87 139.014 190.628C139.378 190.246 139.803 189.943 140.288 189.718C140.791 189.492 141.294 189.38 141.796 189.38C142.282 189.38 142.672 189.44 142.966 189.562C143.053 189.596 143.148 189.674 143.252 189.796C143.374 189.9 143.434 189.986 143.434 190.056C143.434 190.125 143.382 190.229 143.278 190.368C143.192 190.489 143.114 190.558 143.044 190.576C142.368 190.714 141.779 191 141.276 191.434C140.791 191.867 140.47 192.266 140.314 192.63C140.176 192.976 139.968 193.626 139.69 194.58C139.534 195.117 139.413 195.672 139.326 196.244C139.257 196.798 139.231 197.509 139.248 198.376C139.231 198.462 139.222 198.584 139.222 198.74C139.222 198.965 139.24 199.268 139.274 199.65C139.309 200.066 139.326 200.36 139.326 200.534C139.326 201.4 139.231 201.894 139.04 202.016C138.763 202.154 138.399 202.224 137.948 202.224C137.584 202.224 137.29 202.18 137.064 202.094C136.284 201.799 135.894 201.262 135.894 200.482C135.894 200.343 135.903 200.239 135.92 200.17ZM149.725 201.054C149.187 201.383 148.572 201.548 147.879 201.548C147.116 201.548 146.379 201.357 145.669 200.976C144.975 200.577 144.421 200.014 144.005 199.286C143.589 198.558 143.415 197.726 143.485 196.79L143.615 196.166C143.719 195.542 143.805 195.082 143.875 194.788C144.031 194.146 144.343 193.696 144.811 193.436C145.279 193.176 145.903 192.968 146.683 192.812C147.185 192.708 147.679 192.656 148.165 192.656C149.69 192.656 150.973 193.167 152.013 194.19C152.567 194.744 152.845 195.42 152.845 196.218C152.845 196.998 152.559 197.838 151.987 198.74C151.328 199.762 150.574 200.534 149.725 201.054ZM147.541 193.982C147.263 194.658 146.969 195.498 146.657 196.504L146.397 197.284L146.579 197.362C146.579 197.483 146.579 197.674 146.579 197.934C146.596 198.176 146.631 198.384 146.683 198.558C146.873 199.095 147.09 199.424 147.333 199.546C147.437 199.598 147.584 199.572 147.775 199.468C147.983 199.364 148.165 199.242 148.321 199.104C148.563 198.896 148.953 198.462 149.491 197.804C149.889 197.353 150.089 196.816 150.089 196.192C150.089 195.654 149.933 195.169 149.621 194.736C149.326 194.302 148.91 194.008 148.373 193.852C148.321 193.834 148.225 193.826 148.087 193.826C147.757 193.826 147.575 193.878 147.541 193.982ZM154.457 193.098C154.335 192.959 154.249 192.812 154.197 192.656C154.162 192.5 154.127 192.283 154.093 192.006C154.249 191.642 154.535 191.46 154.951 191.46C155.159 191.494 155.306 191.512 155.393 191.512C155.739 191.512 155.956 191.408 156.043 191.2C156.129 190.992 156.173 190.749 156.173 190.472C156.173 190.194 156.173 189.978 156.173 189.822L156.251 188.262C156.268 187.915 156.285 187.49 156.303 186.988C156.337 186.468 156.372 185.87 156.407 185.194C156.424 184.83 156.511 184.561 156.667 184.388C156.84 184.214 157.074 184.128 157.369 184.128C157.577 184.128 157.741 184.145 157.863 184.18C158.573 184.336 159.05 184.561 159.293 184.856C159.535 185.15 159.7 185.592 159.787 186.182C159.804 186.303 159.787 186.554 159.735 186.936L159.267 190.992C159.249 191.096 159.223 191.226 159.189 191.382C159.154 191.52 159.137 191.624 159.137 191.694C159.137 191.85 159.223 191.954 159.397 192.006C159.57 192.058 159.891 192.075 160.359 192.058C161.156 191.884 161.763 191.772 162.179 191.72C162.265 191.702 162.404 191.694 162.595 191.694C162.803 191.694 162.941 191.72 163.011 191.772C163.08 191.806 163.132 191.91 163.167 192.084C163.219 192.24 163.245 192.422 163.245 192.63C163.245 192.82 163.219 192.994 163.167 193.15C163.132 193.306 163.08 193.392 163.011 193.41C162.543 193.548 161.988 193.661 161.347 193.748C160.584 193.886 160.021 194.008 159.657 194.112C159.466 194.164 159.275 194.294 159.085 194.502C158.894 194.71 158.79 194.9 158.773 195.074C158.738 195.923 158.712 196.79 158.695 197.674C158.677 198.35 158.703 199.026 158.773 199.702C158.825 200.274 158.937 200.69 159.111 200.95C159.284 201.192 159.544 201.314 159.891 201.314C160.168 201.314 160.567 201.218 161.087 201.028C161.364 200.906 161.607 200.846 161.815 200.846C162.144 200.846 162.378 201.028 162.517 201.392C162.569 201.513 162.595 201.634 162.595 201.756C162.595 201.981 162.508 202.163 162.335 202.302C162.179 202.44 161.962 202.562 161.685 202.666C161.165 202.856 160.636 202.96 160.099 202.978C159.371 202.978 158.686 202.804 158.045 202.458C157.403 202.094 156.892 201.591 156.511 200.95C156.147 200.308 155.991 199.572 156.043 198.74C156.06 198.41 156.069 197.89 156.069 197.18C156.069 196.053 156.025 194.909 155.939 193.748C155.921 193.644 155.861 193.574 155.757 193.54C155.653 193.488 155.479 193.436 155.237 193.384C154.838 193.314 154.578 193.219 154.457 193.098ZM174.669 193.982C174.825 194.294 174.963 194.649 175.085 195.048C175.223 195.429 175.319 195.68 175.371 195.802L175.605 196.478C175.397 197.466 175.189 198.28 174.981 198.922C174.773 199.546 174.469 200.135 174.071 200.69C173.672 201.227 173.126 201.669 172.433 202.016C171.791 202.345 171.107 202.51 170.379 202.51C169.581 202.51 168.81 202.328 168.065 201.964C167.337 201.6 166.721 201.097 166.219 200.456C165.716 199.797 165.421 199.06 165.335 198.246C165.3 197.83 165.283 197.509 165.283 197.284C165.283 196.677 165.369 196.122 165.543 195.62C165.733 195.117 166.063 194.658 166.531 194.242C166.669 194.12 166.825 193.886 166.999 193.54C167.155 193.228 167.302 192.994 167.441 192.838C168.169 192.058 169.035 191.668 170.041 191.668C170.543 191.668 171.133 191.78 171.809 192.006C171.895 192.04 172.181 192.144 172.667 192.318C173.169 192.491 173.585 192.716 173.915 192.994C174.244 193.271 174.495 193.6 174.669 193.982ZM170.145 193.124C169.503 193.644 169.044 194.268 168.767 194.996C168.507 195.706 168.273 196.668 168.065 197.882C168.099 198.02 168.177 198.315 168.299 198.766C168.42 199.216 168.567 199.632 168.741 200.014C168.931 200.482 169.269 200.716 169.755 200.716C169.841 200.716 170.006 200.698 170.249 200.664C170.786 200.56 171.254 200.256 171.653 199.754C172.069 199.234 172.389 198.627 172.615 197.934C172.84 197.24 172.953 196.599 172.953 196.01C172.953 194.848 172.476 193.869 171.523 193.072C171.28 192.881 171.063 192.786 170.873 192.786C170.665 192.786 170.422 192.898 170.145 193.124ZM184.108 189.77C184.195 189.735 184.386 189.709 184.68 189.692C184.992 189.657 185.27 189.64 185.512 189.64C185.998 189.64 186.44 189.943 186.838 190.55L186.5 190.81C186.102 191.104 185.53 191.33 184.784 191.486C184.126 191.815 183.632 192.092 183.302 192.318C182.99 192.543 182.756 192.794 182.6 193.072C182.462 193.349 182.392 193.704 182.392 194.138C182.392 194.346 182.444 194.883 182.548 195.75L182.678 196.842C182.817 198.176 182.938 199.156 183.042 199.78C183.077 200.005 183.146 200.274 183.25 200.586C183.372 200.88 183.493 201.054 183.614 201.106C183.736 201.158 183.978 201.071 184.342 200.846C185.036 200.014 185.486 199.433 185.694 199.104C185.746 199.017 185.833 198.87 185.954 198.662C186.076 198.454 186.197 198.298 186.318 198.194C186.44 198.072 186.587 198.012 186.76 198.012C186.795 198.012 186.882 198.029 187.02 198.064C187.298 198.15 187.514 198.28 187.67 198.454C187.844 198.627 187.93 198.878 187.93 199.208C187.93 199.364 187.922 199.476 187.904 199.546C187.8 200.239 187.558 200.863 187.176 201.418C186.795 201.972 186.292 202.518 185.668 203.056C185.426 203.281 185.027 203.394 184.472 203.394C183.866 203.394 183.268 203.255 182.678 202.978C182.089 202.718 181.69 202.371 181.482 201.938C180.945 200.776 180.442 199.294 179.974 197.492C179.853 196.989 179.758 196.192 179.688 195.1L179.61 194.138C179.576 193.739 179.576 193.436 179.61 193.228C179.645 193.002 179.307 192.864 178.596 192.812C178.336 192.794 178.206 192.621 178.206 192.292C178.38 191.737 178.648 191.408 179.012 191.304C179.359 191.2 179.576 190.983 179.662 190.654C179.749 190.307 179.818 189.952 179.87 189.588C180.026 188.461 180.061 187.204 179.974 185.818C179.94 185.159 180.139 184.778 180.572 184.674L180.806 184.7C180.893 184.717 181.092 184.752 181.404 184.804C181.716 184.838 181.994 184.916 182.236 185.038C182.843 185.367 183.146 185.948 183.146 186.78C183.146 187.126 183.077 187.577 182.938 188.132C182.921 188.218 182.895 188.296 182.86 188.366C182.826 188.435 182.8 188.513 182.782 188.6C182.73 188.86 182.704 189.076 182.704 189.25C182.548 189.77 182.67 190.03 183.068 190.03C183.207 190.03 183.554 189.943 184.108 189.77ZM190.053 210.128C190.174 210.093 190.33 210.041 190.521 209.972C190.712 209.92 190.876 209.885 191.015 209.868C192.263 209.833 193.173 209.573 193.745 209.088C194.334 208.602 194.707 207.744 194.863 206.514C195.019 205.283 195.175 203.437 195.331 200.976L195.435 199.312C195.452 198.913 195.374 198.61 195.201 198.402C195.045 198.176 194.75 198.038 194.317 197.986C193.381 197.882 192.566 197.518 191.873 196.894C191.197 196.27 190.729 195.481 190.469 194.528C190.382 194.233 190.287 193.886 190.183 193.488C189.975 192.725 189.828 192.153 189.741 191.772V191.72C189.741 191.616 189.776 191.503 189.845 191.382C189.914 191.243 189.984 191.148 190.053 191.096C190.33 190.905 190.651 190.81 191.015 190.81C191.5 190.81 191.934 190.983 192.315 191.33C192.696 191.659 192.913 192.075 192.965 192.578C193.052 193.358 193.199 194.207 193.407 195.126C193.494 195.49 193.658 195.672 193.901 195.672C194.092 195.672 194.256 195.576 194.395 195.386C194.846 194.814 195.192 194.259 195.435 193.722C195.73 193.063 196.163 192.734 196.735 192.734C196.891 192.734 197.004 192.742 197.073 192.76C197.974 192.933 198.408 193.488 198.373 194.424L198.295 196.842C198.226 198.991 198.148 200.594 198.061 201.652L197.983 202.692C197.879 204.113 197.775 205.214 197.671 205.994C197.584 206.791 197.437 207.588 197.229 208.386C196.969 209.391 196.492 210.136 195.799 210.622C195.106 211.124 194.291 211.376 193.355 211.376C192.61 211.376 191.864 211.228 191.119 210.934C190.963 210.864 190.781 210.769 190.573 210.648C190.365 210.544 190.209 210.457 190.105 210.388L190.053 210.128ZM201.186 206.956C201.186 202.258 201.177 198.74 201.16 196.4C201.16 195.949 201.229 195.602 201.368 195.36C201.524 195.1 201.81 194.892 202.226 194.736C202.936 194.476 203.838 194.103 204.93 193.618L206.282 193.02C206.507 192.933 206.819 192.907 207.218 192.942C208.24 193.011 208.977 193.271 209.428 193.722C209.878 194.155 210.104 194.779 210.104 195.594C210.104 196.044 210.017 196.634 209.844 197.362C209.67 198.072 209.263 199 208.622 200.144C208.05 201.184 207.244 201.704 206.204 201.704C205.84 201.704 205.476 201.643 205.112 201.522C204.869 201.452 204.713 201.418 204.644 201.418C204.28 201.418 204.124 201.721 204.176 202.328C204.228 203.61 204.254 204.867 204.254 206.098C204.271 206.392 204.28 206.817 204.28 207.372C204.28 207.701 204.271 207.952 204.254 208.126L204.228 208.854C204.228 209.304 204.089 209.668 203.812 209.946C203.534 210.223 203.17 210.362 202.72 210.362C202.321 210.362 201.974 210.214 201.68 209.92C201.385 209.625 201.238 209.278 201.238 208.88V206.956H201.186ZM204.072 196.946C203.985 197.015 203.916 197.136 203.864 197.31C203.829 197.466 203.803 197.63 203.786 197.804C203.768 197.96 203.742 198.107 203.708 198.246C203.725 198.263 203.742 198.272 203.76 198.272C203.794 198.272 203.82 198.28 203.838 198.298C203.838 198.402 203.846 198.584 203.864 198.844C203.881 199.104 203.907 199.338 203.942 199.546C203.994 199.788 204.08 199.979 204.202 200.118C204.323 200.239 204.462 200.3 204.618 200.3C204.826 200.3 205.034 200.204 205.242 200.014C206.386 199.043 207.044 197.63 207.218 195.776C207.218 195.689 207.14 195.559 206.984 195.386C206.828 195.212 206.741 195.134 206.724 195.152C206.273 195.429 205.805 195.724 205.32 196.036C204.834 196.33 204.418 196.634 204.072 196.946ZM217.444 198.74C217.271 198.844 217.02 198.896 216.69 198.896C216.569 198.896 216.422 198.887 216.248 198.87C216.075 198.852 215.928 198.852 215.806 198.87C215.945 199.442 216.274 199.91 216.794 200.274C217.314 200.62 217.895 200.794 218.536 200.794C219.091 200.794 219.585 200.672 220.018 200.43C220.66 200.1 221.214 199.71 221.682 199.26C222.012 198.93 222.324 198.766 222.618 198.766C222.809 198.766 222.974 198.861 223.112 199.052C223.251 199.277 223.32 199.554 223.32 199.884C223.32 200.23 223.251 200.499 223.112 200.69C222.662 201.383 222.072 201.86 221.344 202.12C220.634 202.38 219.802 202.51 218.848 202.51C217.86 202.51 216.907 202.293 215.988 201.86C215.07 201.426 214.281 200.837 213.622 200.092C212.981 199.329 212.556 198.488 212.348 197.57C212.21 197.032 212.14 196.504 212.14 195.984C212.14 195.169 212.366 194.51 212.816 194.008C213.284 193.505 214.03 193.028 215.052 192.578C215.988 192.179 216.855 191.98 217.652 191.98C218.224 191.98 218.779 192.066 219.316 192.24C220.98 192.76 221.812 193.47 221.812 194.372C221.812 194.944 221.474 195.637 220.798 196.452C220.469 196.833 220.079 197.171 219.628 197.466C219.178 197.76 218.736 198.029 218.302 198.272C217.886 198.497 217.6 198.653 217.444 198.74ZM218.536 193.93C218.519 193.843 218.45 193.774 218.328 193.722C218.224 193.652 218.164 193.609 218.146 193.592C217.678 193.557 217.202 193.696 216.716 194.008C216.231 194.302 215.824 194.684 215.494 195.152C215.182 195.62 215.026 196.07 215.026 196.504L215.052 196.712C215.07 196.781 215.156 196.868 215.312 196.972C215.486 197.076 215.59 197.11 215.624 197.076C216.855 196.157 217.782 195.42 218.406 194.866C218.51 194.762 218.562 194.571 218.562 194.294C218.562 194.12 218.554 193.999 218.536 193.93Z" fill="black"/>
</svg>
